<mxfile host="app.diagrams.net" modified="2020-10-28T01:27:59.231Z" agent="5.0 (Windows NT 10.0; Win64; x64) AppleWebKit/537.36 (KHTML, like Gecko) Chrome/86.0.4240.111 Safari/537.36 Edg/86.0.622.51" etag="rc5-Inqelt_KKN0YVCPM" version="13.8.3" type="github">
  <diagram id="rEZjkP4qBjMyPhjxHTaZ" name="第 1 页">
    <mxGraphModel dx="981" dy="554" grid="0" gridSize="10" guides="1" tooltips="1" connect="1" arrows="1" fold="1" page="0" pageScale="1" pageWidth="2339" pageHeight="3300" background="none" math="0" shadow="0">
      <root>
        <mxCell id="0" />
        <mxCell id="1" parent="0" />
        <mxCell id="QJgU92E7XcyVNqFopd3X-1" value="0" style="rounded=0;whiteSpace=wrap;html=1;sketch=1;fillColor=#dae8fc;strokeColor=#6c8ebf;fillStyle=solid;" vertex="1" parent="1">
          <mxGeometry x="162" y="277" width="60" height="60" as="geometry" />
        </mxCell>
        <mxCell id="QJgU92E7XcyVNqFopd3X-2" value="..." style="rounded=0;whiteSpace=wrap;html=1;sketch=1;" vertex="1" parent="1">
          <mxGeometry x="222" y="277" width="60" height="60" as="geometry" />
        </mxCell>
        <mxCell id="QJgU92E7XcyVNqFopd3X-3" value="999" style="rounded=0;whiteSpace=wrap;html=1;sketch=1;fillColor=#d5e8d4;strokeColor=#82b366;fillStyle=solid;" vertex="1" parent="1">
          <mxGeometry x="282" y="277" width="60" height="60" as="geometry" />
        </mxCell>
        <mxCell id="QJgU92E7XcyVNqFopd3X-4" value="1000" style="rounded=0;whiteSpace=wrap;html=1;sketch=1;fillColor=#dae8fc;strokeColor=#6c8ebf;fillStyle=solid;" vertex="1" parent="1">
          <mxGeometry x="342" y="277" width="60" height="60" as="geometry" />
        </mxCell>
        <mxCell id="QJgU92E7XcyVNqFopd3X-5" value="..." style="rounded=0;whiteSpace=wrap;html=1;sketch=1;" vertex="1" parent="1">
          <mxGeometry x="402" y="277" width="60" height="60" as="geometry" />
        </mxCell>
        <mxCell id="QJgU92E7XcyVNqFopd3X-6" value="1999" style="rounded=0;whiteSpace=wrap;html=1;sketch=1;fillColor=#d5e8d4;strokeColor=#82b366;fillStyle=solid;" vertex="1" parent="1">
          <mxGeometry x="462" y="277" width="60" height="60" as="geometry" />
        </mxCell>
        <mxCell id="QJgU92E7XcyVNqFopd3X-7" value="..." style="rounded=0;whiteSpace=wrap;html=1;sketch=1;" vertex="1" parent="1">
          <mxGeometry x="522" y="277" width="60" height="60" as="geometry" />
        </mxCell>
        <mxCell id="QJgU92E7XcyVNqFopd3X-8" value="9999999" style="rounded=0;whiteSpace=wrap;html=1;sketch=1;fillColor=#fff2cc;strokeColor=#d6b656;fillStyle=solid;" vertex="1" parent="1">
          <mxGeometry x="582" y="277" width="60" height="60" as="geometry" />
        </mxCell>
        <mxCell id="QJgU92E7XcyVNqFopd3X-9" value="" style="shape=curlyBracket;whiteSpace=wrap;html=1;rounded=1;direction=south;sketch=1;fillColor=#0050ef;strokeColor=#001DBC;fontColor=#ffffff;" vertex="1" parent="1">
          <mxGeometry x="162" y="256" width="180" height="20" as="geometry" />
        </mxCell>
        <mxCell id="QJgU92E7XcyVNqFopd3X-10" value="" style="shape=curlyBracket;whiteSpace=wrap;html=1;rounded=1;direction=south;sketch=1;fillColor=#008a00;strokeColor=#005700;fontColor=#ffffff;" vertex="1" parent="1">
          <mxGeometry x="342" y="256" width="180" height="20" as="geometry" />
        </mxCell>
        <mxCell id="QJgU92E7XcyVNqFopd3X-12" value="第一个报文段的数据" style="text;html=1;resizable=0;autosize=1;align=center;verticalAlign=middle;points=[];fillColor=none;strokeColor=none;rounded=0;sketch=1;" vertex="1" parent="1">
          <mxGeometry x="193" y="234" width="118" height="18" as="geometry" />
        </mxCell>
        <mxCell id="QJgU92E7XcyVNqFopd3X-13" value="第二个报文段的数据" style="text;html=1;resizable=0;autosize=1;align=center;verticalAlign=middle;points=[];fillColor=none;strokeColor=none;rounded=0;sketch=1;" vertex="1" parent="1">
          <mxGeometry x="377" y="234" width="118" height="18" as="geometry" />
        </mxCell>
        <mxCell id="QJgU92E7XcyVNqFopd3X-14" value="" style="shape=curlyBracket;whiteSpace=wrap;html=1;rounded=1;sketch=1;rotation=90;fillColor=#e1d5e7;strokeColor=#9673a6;" vertex="1" parent="1">
          <mxGeometry x="359" y="-20" width="86" height="480" as="geometry" />
        </mxCell>
        <mxCell id="QJgU92E7XcyVNqFopd3X-15" value="文件" style="text;html=1;resizable=0;autosize=1;align=center;verticalAlign=middle;points=[];fillColor=none;strokeColor=none;rounded=0;sketch=1;" vertex="1" parent="1">
          <mxGeometry x="388" y="150" width="34" height="18" as="geometry" />
        </mxCell>
        <mxCell id="QJgU92E7XcyVNqFopd3X-17" value="closed" style="rounded=0;whiteSpace=wrap;html=1;sketch=1;fillColor=#f5f5f5;strokeColor=#666666;fillStyle=solid;glass=0;shadow=0;gradientColor=#b3b3b3;" vertex="1" parent="1">
          <mxGeometry x="162" y="419" width="60" height="32" as="geometry" />
        </mxCell>
        <mxCell id="QJgU92E7XcyVNqFopd3X-18" value="closed" style="rounded=0;whiteSpace=wrap;html=1;sketch=1;fillColor=#f5f5f5;strokeColor=#666666;fillStyle=solid;gradientColor=#b3b3b3;" vertex="1" parent="1">
          <mxGeometry x="428" y="419" width="60" height="32" as="geometry" />
        </mxCell>
        <mxCell id="QJgU92E7XcyVNqFopd3X-19" value="syn_sent" style="rounded=0;whiteSpace=wrap;html=1;sketch=1;fillColor=#ffcd28;strokeColor=#d79b00;fillStyle=solid;glass=0;shadow=0;gradientColor=#ffa500;" vertex="1" parent="1">
          <mxGeometry x="162" y="451" width="60" height="120" as="geometry" />
        </mxCell>
        <mxCell id="QJgU92E7XcyVNqFopd3X-20" value="estalished" style="rounded=0;whiteSpace=wrap;html=1;sketch=1;fillColor=#d5e8d4;strokeColor=#82b366;fillStyle=solid;glass=0;shadow=0;gradientColor=#97d077;" vertex="1" parent="1">
          <mxGeometry x="162" y="571" width="60" height="99" as="geometry" />
        </mxCell>
        <mxCell id="QJgU92E7XcyVNqFopd3X-21" value="listen" style="rounded=0;whiteSpace=wrap;html=1;sketch=1;fillColor=#dae8fc;strokeColor=#6c8ebf;fillStyle=solid;gradientColor=#7ea6e0;" vertex="1" parent="1">
          <mxGeometry x="428" y="451" width="60" height="53" as="geometry" />
        </mxCell>
        <mxCell id="QJgU92E7XcyVNqFopd3X-22" value="listen" style="rounded=0;whiteSpace=wrap;html=1;sketch=1;fillColor=#fff2cc;strokeColor=#d6b656;fillStyle=solid;gradientColor=#ffd966;" vertex="1" parent="1">
          <mxGeometry x="428" y="504" width="60" height="131" as="geometry" />
        </mxCell>
        <mxCell id="QJgU92E7XcyVNqFopd3X-23" value="estalished" style="rounded=0;whiteSpace=wrap;html=1;sketch=1;fillColor=#d5e8d4;strokeColor=#82b366;fillStyle=solid;gradientColor=#97d077;" vertex="1" parent="1">
          <mxGeometry x="428" y="635" width="60" height="35" as="geometry" />
        </mxCell>
        <mxCell id="QJgU92E7XcyVNqFopd3X-25" value="" style="endArrow=classic;html=1;exitX=1;exitY=0;exitDx=0;exitDy=0;entryX=0;entryY=1;entryDx=0;entryDy=0;sketch=1;" edge="1" parent="1" source="QJgU92E7XcyVNqFopd3X-19" target="QJgU92E7XcyVNqFopd3X-21">
          <mxGeometry width="50" height="50" relative="1" as="geometry">
            <mxPoint x="247" y="515" as="sourcePoint" />
            <mxPoint x="297" y="465" as="targetPoint" />
          </mxGeometry>
        </mxCell>
        <mxCell id="QJgU92E7XcyVNqFopd3X-29" value="syn=1, seq=client_isn" style="edgeLabel;html=1;align=center;verticalAlign=middle;resizable=0;points=[];" vertex="1" connectable="0" parent="QJgU92E7XcyVNqFopd3X-25">
          <mxGeometry x="-0.3092" y="1" relative="1" as="geometry">
            <mxPoint x="29.97" y="2.98" as="offset" />
          </mxGeometry>
        </mxCell>
        <mxCell id="QJgU92E7XcyVNqFopd3X-26" value="" style="endArrow=classic;html=1;exitX=0;exitY=1;exitDx=0;exitDy=0;entryX=1;entryY=0;entryDx=0;entryDy=0;sketch=1;" edge="1" parent="1" source="QJgU92E7XcyVNqFopd3X-21" target="QJgU92E7XcyVNqFopd3X-20">
          <mxGeometry width="50" height="50" relative="1" as="geometry">
            <mxPoint x="232" y="461" as="sourcePoint" />
            <mxPoint x="352" y="492" as="targetPoint" />
          </mxGeometry>
        </mxCell>
        <mxCell id="QJgU92E7XcyVNqFopd3X-30" value="syn=1, seq=server_isn,&lt;br&gt;ack=client_isn+1" style="edgeLabel;html=1;align=center;verticalAlign=middle;resizable=0;points=[];" vertex="1" connectable="0" parent="QJgU92E7XcyVNqFopd3X-26">
          <mxGeometry x="-0.1928" y="-1" relative="1" as="geometry">
            <mxPoint x="-18.36" y="5.109999999999999" as="offset" />
          </mxGeometry>
        </mxCell>
        <mxCell id="QJgU92E7XcyVNqFopd3X-27" value="" style="endArrow=classic;html=1;exitX=1;exitY=0;exitDx=0;exitDy=0;entryX=0;entryY=0;entryDx=0;entryDy=0;sketch=1;" edge="1" parent="1" source="QJgU92E7XcyVNqFopd3X-20" target="QJgU92E7XcyVNqFopd3X-23">
          <mxGeometry width="50" height="50" relative="1" as="geometry">
            <mxPoint x="352" y="492" as="sourcePoint" />
            <mxPoint x="232" y="534" as="targetPoint" />
          </mxGeometry>
        </mxCell>
        <mxCell id="QJgU92E7XcyVNqFopd3X-31" value="syn=0, seq=client_isn+1,&lt;br&gt;ack=server_isn+1" style="edgeLabel;html=1;align=center;verticalAlign=middle;resizable=0;points=[];" vertex="1" connectable="0" parent="QJgU92E7XcyVNqFopd3X-27">
          <mxGeometry x="0.0933" y="-1" relative="1" as="geometry">
            <mxPoint x="-5.32" y="-3.94" as="offset" />
          </mxGeometry>
        </mxCell>
      </root>
    </mxGraphModel>
  </diagram>
</mxfile>
